<svg width="20" height="20" viewBox="0 0 20 20" fill="none" xmlns="http://www.w3.org/2000/svg">
<path d="M4.68004 16.6663C4.30671 16.6663 3.98893 16.5352 3.72671 16.273C3.46449 16.0108 3.33337 15.6933 3.33337 15.3205V4.67884C3.33337 4.30662 3.46449 3.98912 3.72671 3.72634C3.98893 3.46412 4.30671 3.33301 4.68004 3.33301H15.3209C15.6931 3.33301 16.0106 3.46412 16.2734 3.72634C16.5356 3.98856 16.6667 4.30634 16.6667 4.67967V15.3205C16.6667 15.6927 16.5356 16.0102 16.2734 16.273C16.0112 16.5352 15.6937 16.6663 15.3209 16.6663H4.68004ZM4.68004 15.833H15.3209C15.4703 15.833 15.5931 15.785 15.6892 15.6888C15.7853 15.5927 15.8334 15.47 15.8334 15.3205V5.83301H4.16671V15.3205C4.16671 15.47 4.21476 15.5927 4.31087 15.6888C4.40699 15.785 4.53004 15.833 4.68004 15.833ZM7.55671 12.638C6.83226 12.1752 6.28449 11.5736 5.91337 10.833C6.28449 10.0925 6.83226 9.49079 7.55671 9.02801C8.28171 8.56467 9.09615 8.33301 10 8.33301C10.9039 8.33301 11.7184 8.56467 12.4434 9.02801C13.1684 9.49134 13.7162 10.093 14.0867 10.833C13.7162 11.5736 13.1684 12.1752 12.4434 12.638C11.7184 13.1013 10.9039 13.333 10 13.333C9.09615 13.333 8.28171 13.1013 7.55671 12.638ZM9.33921 11.4938C9.15976 11.315 9.07004 11.0947 9.07004 10.833C9.07004 10.5713 9.15976 10.3511 9.33921 10.1722C9.5181 9.99273 9.73837 9.90301 10 9.90301C10.2617 9.90301 10.482 9.99273 10.6609 10.1722C10.8403 10.3511 10.93 10.5713 10.93 10.833C10.93 11.0947 10.8403 11.315 10.6609 11.4938C10.482 11.6733 10.2617 11.763 10 11.763C9.73837 11.763 9.5181 11.6733 9.33921 11.4938ZM11.1109 11.9438C11.4175 11.6372 11.5709 11.2669 11.5709 10.833C11.5709 10.3991 11.4175 10.0288 11.1109 9.72217C10.8042 9.41551 10.4339 9.26217 10 9.26217C9.56615 9.26217 9.19587 9.41551 8.88921 9.72217C8.58254 10.0288 8.42921 10.3991 8.42921 10.833C8.42921 11.2669 8.58254 11.6372 8.88921 11.9438C9.19587 12.2505 9.56615 12.4038 10 12.4038C10.4339 12.4038 10.8042 12.2505 11.1109 11.9438Z" fill="black" fill-opacity="0.6"/>
</svg>
