<svg width="42" height="31" viewBox="0 0 42 31" fill="none" xmlns="http://www.w3.org/2000/svg">
<path d="M32.197 27.4621C33.7689 27.4621 35.0379 26.1932 35.0379 24.6212C35.0379 23.0492 33.7689 21.7803 32.197 21.7803C30.625 21.7803 29.3561 23.0492 29.3561 24.6212C29.3561 26.1932 30.625 27.4621 32.197 27.4621ZM35.0379 10.4167H30.303V15.1515H38.75L35.0379 10.4167ZM9.4697 27.4621C11.0417 27.4621 12.3106 26.1932 12.3106 24.6212C12.3106 23.0492 11.0417 21.7803 9.4697 21.7803C7.89773 21.7803 6.62879 23.0492 6.62879 24.6212C6.62879 26.1932 7.89773 27.4621 9.4697 27.4621ZM35.9848 7.57576L41.6667 15.1515V24.6212H37.8788C37.8788 27.7652 35.3409 30.303 32.197 30.303C29.053 30.303 26.5152 27.7652 26.5152 24.6212H15.1515C15.1515 27.7652 12.6136 30.303 9.4697 30.303C6.32576 30.303 3.78788 27.7652 3.78788 24.6212H0V3.78788C0 1.68561 1.68561 0 3.78788 0H30.303V7.57576H35.9848ZM3.78788 3.78788V20.8333H5.22727C6.26894 19.678 7.78409 18.9394 9.4697 18.9394C11.1553 18.9394 12.6705 19.678 13.7121 20.8333H26.5152V3.78788H3.78788Z" fill="#A9762E"/>
</svg>
