<svg width="36" height="36" viewBox="0 0 36 36" fill="none" xmlns="http://www.w3.org/2000/svg">
<path d="M29.9128 21.0872L27.375 18.5494V15.1875C27.3721 12.8642 26.5078 10.6245 24.9493 8.90155C23.3909 7.17855 21.2488 6.09462 18.9375 5.85938V3.9375H17.0625V5.85938C14.7512 6.09462 12.6092 7.17855 11.0507 8.90155C9.49217 10.6245 8.62791 12.8642 8.625 15.1875V18.5494L6.08719 21.0872C5.91136 21.263 5.81255 21.5014 5.8125 21.75V24.5625C5.8125 24.8111 5.91127 25.0496 6.08709 25.2254C6.2629 25.4012 6.50136 25.5 6.75 25.5H13.3125V26.2284C13.2921 27.4178 13.7113 28.5728 14.4898 29.4722C15.2683 30.3716 16.3513 30.9521 17.5312 31.1025C18.183 31.1671 18.841 31.0946 19.4631 30.8897C20.0851 30.6847 20.6573 30.3519 21.143 29.9125C21.6287 29.4731 22.017 28.9369 22.283 28.3384C22.549 27.74 22.6868 27.0924 22.6875 26.4375V25.5H29.25C29.4986 25.5 29.7371 25.4012 29.9129 25.2254C30.0887 25.0496 30.1875 24.8111 30.1875 24.5625V21.75C30.1874 21.5014 30.0886 21.263 29.9128 21.0872ZM20.8125 26.4375C20.8125 27.1834 20.5162 27.8988 19.9887 28.4262C19.4613 28.9537 18.7459 29.25 18 29.25C17.2541 29.25 16.5387 28.9537 16.0113 28.4262C15.4838 27.8988 15.1875 27.1834 15.1875 26.4375V25.5H20.8125V26.4375ZM28.3125 23.625H7.6875V22.1381L10.2253 19.6003C10.4011 19.4245 10.4999 19.1861 10.5 18.9375V15.1875C10.5 13.1984 11.2902 11.2907 12.6967 9.8842C14.1032 8.47768 16.0109 7.6875 18 7.6875C19.9891 7.6875 21.8968 8.47768 23.3033 9.8842C24.7098 11.2907 25.5 13.1984 25.5 15.1875V18.9375C25.5001 19.1861 25.5989 19.4245 25.7747 19.6003L28.3125 22.1381V23.625Z" fill="#A9762E"/>
</svg>
